REM DIRINDEX 1\2,1\3,1\4,1\5
REM DIRNAME folder01,folder02,folder03,folder04,folder05
TITLE ""
FILE "1Q_t_0790-0799.mp3" MP3
  TRACK 01 AUDIO
    TITLE "3:cjc004_3273"
    INDEX 01 00:00:00
  TRACK 02 AUDIO
    TITLE "0:"
    INDEX 01 00:01:09
  TRACK 03 AUDIO
    TITLE "4:cjc004_3274"
    INDEX 01 00:01:30
  TRACK 04 AUDIO
    TITLE "0:"
    INDEX 01 00:02:36
  TRACK 05 AUDIO
    TITLE "5:cjc004_3275"
    INDEX 01 00:02:57
  TRACK 06 AUDIO
    TITLE "0:"
    INDEX 01 00:07:35
  TRACK 07 AUDIO
    TITLE "3:cjc004_3276"
    INDEX 01 00:08:15
  TRACK 08 AUDIO
    TITLE "0:"
    INDEX 01 00:09:34
  TRACK 09 AUDIO
    TITLE "4:cjc004_3277"
    INDEX 01 00:09:42
  TRACK 10 AUDIO
    TITLE "0:"
    INDEX 01 00:10:57
  TRACK 11 AUDIO
    TITLE "5:cjc004_3278"
    INDEX 01 00:11:11
  TRACK 12 AUDIO
    TITLE "0:"
    INDEX 01 00:16:65
  TRACK 13 AUDIO
    TITLE "3:cjc004_3279"
    INDEX 01 00:17:43
  TRACK 14 AUDIO
    TITLE "0:"
    INDEX 01 00:19:01
  TRACK 15 AUDIO
    TITLE "4:cjc004_3280"
    INDEX 01 00:19:26
  TRACK 16 AUDIO
    TITLE "0:"
    INDEX 01 00:20:47
  TRACK 17 AUDIO
    TITLE "5:cjc004_3281"
    INDEX 01 00:20:69
  TRACK 18 AUDIO
    TITLE "0:"
    INDEX 01 00:25:70
  TRACK 19 AUDIO
    TITLE "3:cjc004_3282"
    INDEX 01 00:26:50
  TRACK 20 AUDIO
    TITLE "0:"
    INDEX 01 00:27:67
  TRACK 21 AUDIO
    TITLE "4:cjc004_3283"
    INDEX 01 00:28:19
  TRACK 22 AUDIO
    TITLE "0:"
    INDEX 01 00:29:74
  TRACK 23 AUDIO
    TITLE "5:cjc004_3284"
    INDEX 01 00:30:22
  TRACK 24 AUDIO
    TITLE "0:"
    INDEX 01 00:34:26
  TRACK 25 AUDIO
    TITLE "3:cjc004_3285"
    INDEX 01 00:35:06
  TRACK 26 AUDIO
    TITLE "0:"
    INDEX 01 00:36:21
  TRACK 27 AUDIO
    TITLE "4:cjc004_3286"
    INDEX 01 00:36:38
  TRACK 28 AUDIO
    TITLE "0:"
    INDEX 01 00:37:50
  TRACK 29 AUDIO
    TITLE "5:cjc004_3287"
    INDEX 01 00:38:02
  TRACK 30 AUDIO
    TITLE "0:"
    INDEX 01 00:44:01
  TRACK 31 AUDIO
    TITLE "3:cjc004_3288"
    INDEX 01 00:44:54
  TRACK 32 AUDIO
    TITLE "0:"
    INDEX 01 00:45:63
  TRACK 33 AUDIO
    TITLE "4:cjc004_3289"
    INDEX 01 00:46:04
  TRACK 34 AUDIO
    TITLE "0:"
    INDEX 01 00:47:27
  TRACK 35 AUDIO
    TITLE "5:cjc004_3290"
    INDEX 01 00:47:50
  TRACK 36 AUDIO
    TITLE "0:"
    INDEX 01 00:51:50
  TRACK 37 AUDIO
    TITLE "3:cjc004_3291"
    INDEX 01 00:52:26
  TRACK 38 AUDIO
    TITLE "0:"
    INDEX 01 00:53:72
  TRACK 39 AUDIO
    TITLE "4:cjc004_3292"
    INDEX 01 00:54:19
  TRACK 40 AUDIO
    TITLE "0:"
    INDEX 01 00:55:46
  TRACK 41 AUDIO
    TITLE "5:cjc004_3293"
    INDEX 01 00:55:67
  TRACK 42 AUDIO
    TITLE "0:"
    INDEX 01 01:00:64
  TRACK 43 AUDIO
    TITLE "3:cjc004_3294"
    INDEX 01 01:01:44
  TRACK 44 AUDIO
    TITLE "0:"
    INDEX 01 01:02:50
  TRACK 45 AUDIO
    TITLE "4:cjc004_3295"
    INDEX 01 01:03:02
  TRACK 46 AUDIO
    TITLE "0:"
    INDEX 01 01:04:25
  TRACK 47 AUDIO
    TITLE "5:cjc004_3296"
    INDEX 01 01:04:48
  TRACK 48 AUDIO
    TITLE "0:"
    INDEX 01 01:09:10
  TRACK 49 AUDIO
    TITLE "3:cjc004_3297"
    INDEX 01 01:09:59
  TRACK 50 AUDIO
    TITLE "0:"
    INDEX 01 01:11:02
  TRACK 51 AUDIO
    TITLE "4:cjc004_3298"
    INDEX 01 01:11:15
  TRACK 52 AUDIO
    TITLE "0:"
    INDEX 01 01:12:28
  TRACK 53 AUDIO
    TITLE "5:cjc004_3299"
    INDEX 01 01:12:50
  TRACK 54 AUDIO
    TITLE "0:"
    INDEX 01 01:15:23
  TRACK 55 AUDIO
    TITLE "3:cjc004_3300"
    INDEX 01 01:16:07
  TRACK 56 AUDIO
    TITLE "0:"
    INDEX 01 01:17:28
  TRACK 57 AUDIO
    TITLE "4:cjc004_3301"
    INDEX 01 01:17:55
  TRACK 58 AUDIO
    TITLE "0:"
    INDEX 01 01:19:01
  TRACK 59 AUDIO
    TITLE "5:cjc004_3302"
    INDEX 01 01:19:28
  TRACK 60 AUDIO
    TITLE "0:"
    INDEX 01 01:25:60
